HIERARCHY
ROOT joint_Root
{
	OFFSET 0.0 0.0 0.0
	CHANNELS 6 Xposition Yposition Zposition Zrotation Xrotation Yrotation 
	JOINT Hips
	{
		OFFSET -0.726466 93.3139 -2.00062
		CHANNELS 6 Xposition Yposition Zposition Zrotation Xrotation Yrotation 
		JOINT Spine
		{
			OFFSET 15.7357 0.0 0.0
			CHANNELS 6 Xposition Yposition Zposition Zrotation Xrotation Yrotation 
			JOINT Chest
			{
				OFFSET 8.98455 -0.406207 0.0
				CHANNELS 6 Xposition Yposition Zposition Zrotation Xrotation Yrotation 
				JOINT Neck
				{
					OFFSET 16.3773 0.0 0.0
					CHANNELS 6 Xposition Yposition Zposition Zrotation Xrotation Yrotation 
					JOINT Head
					{
						OFFSET 6.45672 0.0 0.0
						CHANNELS 6 Xposition Yposition Zposition Zrotation Xrotation Yrotation 
						End Site
						{
							OFFSET 0.0 0.0 0.0
						}
					}
				}
				JOINT Shoulder_L
				{
					OFFSET 12.9942 -0.242716 4.98039
					CHANNELS 6 Xposition Yposition Zposition Zrotation Xrotation Yrotation 
					JOINT UpperArm_L
					{
						OFFSET 5.34809 0.0 0.0
						CHANNELS 6 Xposition Yposition Zposition Zrotation Xrotation Yrotation 
						JOINT LowerArm_L
						{
							OFFSET 24.3286 1.87007e-05 0.0
							CHANNELS 6 Xposition Yposition Zposition Zrotation Xrotation Yrotation 
							JOINT Hand_L
							{
								OFFSET 22.2916 0.0 0.0
								CHANNELS 6 Xposition Yposition Zposition Zrotation Xrotation Yrotation 
								End Site
								{
									OFFSET 0.0 0.0 0.0
								}
							}
						}
					}
				}
				JOINT Shoulder_R
				{
					OFFSET 12.9945 -0.242716 -4.98039
					CHANNELS 6 Xposition Yposition Zposition Zrotation Xrotation Yrotation 
					JOINT UpperArm_R
					{
						OFFSET -5.34813 0.0 0.0
						CHANNELS 6 Xposition Yposition Zposition Zrotation Xrotation Yrotation 
						JOINT LowerArm_R
						{
							OFFSET -24.3289 0.000322201 0.0
							CHANNELS 6 Xposition Yposition Zposition Zrotation Xrotation Yrotation 
							JOINT Hand_R
							{
								OFFSET -22.2915 -0.000108084 0.0
								CHANNELS 6 Xposition Yposition Zposition Zrotation Xrotation Yrotation 
								End Site
								{
									OFFSET 0.0 0.0 0.0
								}
							}
						}
					}
				}
			}
		}
		JOINT UpperLeg_L
		{
			OFFSET -2.19248 -6.46944 0.0
			CHANNELS 6 Xposition Yposition Zposition Zrotation Xrotation Yrotation 
			JOINT LowerLeg_L
			{
				OFFSET 39.0811 0.0 -1.23785e-05
				CHANNELS 6 Xposition Yposition Zposition Zrotation Xrotation Yrotation 
				JOINT Foot_L
				{
					OFFSET 40.9854 0.0 -1.26872e-05
					CHANNELS 6 Xposition Yposition Zposition Zrotation Xrotation Yrotation 
					JOINT Toes_L
					{
						OFFSET 11.7543 0.0 0.0
						CHANNELS 6 Xposition Yposition Zposition Zrotation Xrotation Yrotation 
						End Site
						{
							OFFSET 0.0 0.0 0.0
						}
					}
				}
			}
		}
		JOINT UpperLeg_R
		{
			OFFSET -2.19251 6.46944 0.0
			CHANNELS 6 Xposition Yposition Zposition Zrotation Xrotation Yrotation 
			JOINT LowerLeg_R
			{
				OFFSET -39.0811 -0.00228153 -0.0401928
				CHANNELS 6 Xposition Yposition Zposition Zrotation Xrotation Yrotation 
				JOINT Foot_R
				{
					OFFSET -40.9854 0.0 0.0
					CHANNELS 6 Xposition Yposition Zposition Zrotation Xrotation Yrotation 
					JOINT Toes_R
					{
						OFFSET -11.7543 0.0 0.0
						CHANNELS 6 Xposition Yposition Zposition Zrotation Xrotation Yrotation 
						End Site
						{
							OFFSET 0.0 0.0 0.0
						}
					}
				}
			}
		}
	}
}
MOTION
Frames:	4
Frame Time:	0.0333333
0.000000 0.000000 0.000000 0.000000 0.000000 -0.000000 -1.634950 88.806100 479.452000 -78.733400 -7.814440 163.032000 15.735700 0.000005 -0.000001 70.129400 79.469000 -65.240800 8.984550 -0.406207 -0.000000 12.424200 -6.895230 10.537600 16.377300 -0.000001 -0.000001 3.493420 1.303030 -1.166390 6.456720 -0.000001 -0.000000 -5.911470 7.090730 -1.202700 12.994200 -0.242716 4.980390 -86.301100 -10.063900 -69.697200 5.348090 -0.000007 -0.000001 -46.260700 -0.272940 -38.619600 24.328600 0.000019 0.000005 -12.120000 -0.712436 -86.687200 22.291600 -0.000001 0.000005 1.028690 5.659800 -16.033300 12.994500 -0.242716 -4.980390 92.815300 -5.695720 -63.642800 -5.348130 -0.000001 -0.000004 -56.121000 24.389000 14.083300 -24.328900 0.000322 -0.000009 -3.809710 -3.910040 -44.311200 -22.291500 -0.000108 -0.000004 -4.914920 5.584640 -10.462800 -2.192480 -6.469440 -0.000000 -166.943000 -3.290290 -2.388920 39.081100 -0.000007 -0.000012 0.005543 -0.012406 24.074200 40.985400 -0.000006 -0.000013 3.090240 -1.477660 -62.902000 11.754300 -0.000000 0.000003 -0.153059 -0.560754 -40.312000 -2.192510 6.469440 -0.000001 -166.855000 7.015960 126.627000 -39.081100 -0.002282 -0.040193 0.039608 -0.002907 85.549600 -40.985400 0.000008 0.000006 -2.613790 -16.250300 -63.002700 -11.754300 -0.000006 -0.000006 -0.018422 -0.158388 -23.041400
0.000000 0.000000 0.000000 0.000000 0.000000 -0.000000 -1.185370 91.453100 473.028000 -79.951900 -10.073400 161.442000 15.735700 0.000005 -0.000001 65.397200 79.669800 -60.263700 8.984550 -0.406207 -0.000000 11.508500 -8.366470 11.123200 16.377300 -0.000001 -0.000001 4.157440 0.790739 -1.408540 6.456720 -0.000001 -0.000000 -6.424370 7.270340 -1.344730 12.994200 -0.242716 4.980390 -86.209700 -10.715300 -70.388000 5.348090 -0.000007 -0.000001 -47.283000 0.143424 -37.618000 24.328600 0.000019 0.000005 -10.961200 -0.344114 -88.224500 22.291600 -0.000001 0.000005 0.917183 5.656790 -15.701400 12.994500 -0.242716 -4.980390 93.537600 -6.968740 -63.000500 -5.348130 -0.000001 -0.000004 -58.298300 22.039000 17.336100 -24.328900 0.000322 -0.000009 -4.019610 -3.733650 -47.172000 -22.291500 -0.000108 -0.000004 -5.106750 5.575150 -9.954540 -2.192480 -6.469440 -0.000000 -165.118000 -8.927210 -0.522646 39.081100 -0.000007 -0.000012 0.019344 -0.060206 17.812200 40.985400 -0.000006 -0.000013 0.881282 7.642400 -43.410400 11.754300 -0.000000 0.000003 -0.228864 -0.691038 -46.426300 -2.192510 6.469440 -0.000001 -165.873000 9.007400 124.792000 -39.081100 -0.002282 -0.040193 0.056326 -0.016093 73.187400 -40.985400 0.000008 0.000006 -3.566880 -12.985400 -66.007900 -11.754300 -0.000006 -0.000006 -0.018079 -0.156406 -22.959900
0.000000 0.000000 0.000000 0.000000 0.000000 -0.000000 -0.897774 93.115400 466.336000 -81.739000 -10.460600 160.727000 15.735700 0.000005 -0.000001 63.239000 79.628000 -58.236500 8.984550 -0.406207 -0.000000 11.283200 -9.116710 10.920800 16.377300 -0.000001 -0.000001 4.942970 0.390004 -1.795550 6.456720 -0.000001 -0.000000 -7.532930 7.395030 -1.446560 12.994200 -0.242716 4.980390 -86.237500 -10.963200 -70.925000 5.348090 -0.000007 -0.000001 -49.561400 1.181520 -35.607200 24.328600 0.000019 0.000005 -10.475500 -0.200207 -88.917400 22.291600 -0.000001 0.000005 0.956312 5.657620 -15.794000 12.994500 -0.242716 -4.980390 94.158100 -8.057830 -62.586400 -5.348130 -0.000001 -0.000004 -60.348200 19.718400 18.717700 -24.328900 0.000322 -0.000009 -3.845780 -3.286150 -49.536600 -22.291500 -0.000108 -0.000004 -5.035850 5.566090 -9.491760 -2.192480 -6.469440 -0.000000 -164.635000 -10.230800 2.534240 39.081100 -0.000007 -0.000012 0.031586 -0.136285 13.048800 40.985400 -0.000006 -0.000013 -2.950490 10.610100 -30.271000 11.754300 -0.000000 0.000003 -0.038591 -0.254458 -27.025600 -2.192510 6.469440 -0.000001 -166.180000 10.349600 126.226000 -39.081100 -0.002282 -0.040193 0.032312 -0.018057 58.180700 -40.985400 0.000008 0.000006 -5.521640 -7.126310 -68.020900 -11.754300 -0.000006 -0.000006 -0.018787 -0.160472 -23.127200
0.000000 0.000000 0.000000 0.000000 0.000000 -0.000000 -0.694723 93.234200 459.332000 -82.752700 -10.490600 160.762000 15.735700 0.000005 -0.000001 61.461900 79.430600 -56.528700 8.984550 -0.406207 -0.000000 11.377100 -9.866870 10.867800 16.377300 -0.000001 -0.000001 5.276520 0.380467 -1.735110 6.456720 -0.000001 -0.000000 -7.978330 7.700040 -1.788840 12.994200 -0.242716 4.980390 -86.282200 -10.959200 -71.129600 5.348090 -0.000007 -0.000001 -52.211600 2.472190 -32.029500 24.328600 0.000019 0.000005 -10.116300 -0.059845 -89.664500 22.291600 -0.000001 0.000005 1.427940 5.658050 -15.828000 12.994500 -0.242716 -4.980390 94.364600 -8.426090 -62.486700 -5.348130 -0.000001 -0.000004 -61.691100 18.457300 18.190400 -24.328900 0.000322 -0.000009 -4.312640 -3.450740 -51.394000 -22.291500 -0.000108 -0.000004 -4.238430 5.558370 -9.108820 -2.192480 -6.469440 -0.000000 -164.320000 -7.924870 3.884500 39.081100 -0.000007 -0.000012 0.043017 -0.145296 16.492200 40.985400 -0.000006 -0.000013 -1.836520 3.589550 -28.896400 11.754300 -0.000000 0.000003 -0.005313 -0.064468 -19.200100 -2.192510 6.469440 -0.000001 -165.248000 12.187300 129.283000 -39.081100 -0.002282 -0.040193 -0.016316 0.021341 42.547000 -40.985400 0.000008 0.000006 -7.833200 -3.552650 -69.827600 -11.754300 -0.000006 -0.000006 -0.019725 -0.165762 -23.345000
